<mxfile host="Electron" modified="2023-12-04T17:43:31.293Z" agent="Mozilla/5.0 (Windows NT 10.0; Win64; x64) AppleWebKit/537.36 (KHTML, like Gecko) draw.io/22.1.2 Chrome/114.0.5735.289 Electron/25.9.4 Safari/537.36" etag="sKrJkTMsVHunIqSUgD51" version="22.1.2" type="device">
  <diagram name="Página-1" id="SBtXCQusfcoDAzW-KhdI">
    <mxGraphModel dx="1082" dy="883" grid="1" gridSize="10" guides="1" tooltips="1" connect="1" arrows="1" fold="1" page="1" pageScale="1" pageWidth="827" pageHeight="1169" math="0" shadow="0">
      <root>
        <mxCell id="0" />
        <mxCell id="1" parent="0" />
        <mxCell id="He1LjLUOFKAsx9Kj7YYt-1" value="&lt;div&gt;&lt;b&gt;dc:creator:&lt;/b&gt;&amp;nbsp;Juan Cano-Benito&lt;br&gt;&lt;div style=&quot;border-color: var(--border-color);&quot;&gt;&lt;b style=&quot;border-color: var(--border-color);&quot;&gt;dc:creator:&lt;/b&gt;&amp;nbsp;Raúl García-Castro&lt;/div&gt;&lt;/div&gt;&lt;div&gt;&lt;b&gt;owl:versionInfo:&lt;/b&gt; 1.0&lt;/div&gt;&lt;div&gt;&lt;b&gt;dc:title:&lt;/b&gt;&amp;nbsp;Ethereum Ontology&lt;/div&gt;" style="shape=document;whiteSpace=wrap;html=1;boundedLbl=1;labelBackgroundColor=#ffffff;strokeColor=#000000;fontSize=12;fontColor=#000000;size=0.23333333333333334;" parent="1" vertex="1">
          <mxGeometry x="483" y="865" width="253" height="90" as="geometry" />
        </mxCell>
        <mxCell id="7OYhp2xL0KcFC6VSOEil-1" value="&lt;div&gt;&lt;b&gt;eth&lt;/b&gt;: https://w3id.org/def/EthereumOntology/&lt;/div&gt;&lt;div&gt;&lt;b&gt;abi:&lt;/b&gt;&amp;nbsp;https://w3id.org/def/SolidityABI/&lt;br&gt;&lt;span style=&quot;border-color: var(--border-color);&quot;&gt;&lt;b style=&quot;border-color: var(--border-color);&quot;&gt;ethon:&amp;nbsp;&lt;/b&gt;http://ethon.consensys.net/&lt;br style=&quot;border-color: var(--border-color);&quot;&gt;&lt;/span&gt;&lt;/div&gt;" style="shape=note;whiteSpace=wrap;html=1;backgroundOutline=1;darkOpacity=0.05;" parent="1" vertex="1">
          <mxGeometry x="110" y="860" width="310" height="70" as="geometry" />
        </mxCell>
        <mxCell id="7OYhp2xL0KcFC6VSOEil-8" value="eth:author: string&lt;br&gt;eth:baseFeePerGas: integer&lt;br&gt;eth:difficulty: integer&lt;br&gt;eth:extraData: string&lt;br&gt;eth:gasLimit: integer&lt;br style=&quot;border-color: var(--border-color);&quot;&gt;eth:gasUsed: integer&lt;br&gt;eth:hash:string&lt;br&gt;eth:logsBloom: string&lt;br&gt;eth:miner: string&lt;br style=&quot;border-color: var(--border-color);&quot;&gt;eth:mixHash: string&lt;br&gt;eth:nonce: integer&lt;br style=&quot;border-color: var(--border-color);&quot;&gt;eth:number: integer&lt;br&gt;eth:parentHash: string&lt;br style=&quot;border-color: var(--border-color);&quot;&gt;eth:receiptsRoot: string&lt;br style=&quot;border-color: var(--border-color);&quot;&gt;eth:sha3Uncles: string&lt;br&gt;eth:size: integer&lt;br&gt;eth:stateRoot: string&lt;br style=&quot;border-color: var(--border-color);&quot;&gt;eth:timestamp: integer&lt;br&gt;eth:totalDifficulty: integer&lt;br style=&quot;border-color: var(--border-color);&quot;&gt;eth:transactionsRoot: string&lt;br&gt;eth:withdrawalRoot: string" style="rounded=0;whiteSpace=wrap;html=1;snapToPoint=1;points=[[0.1,0],[0.2,0],[0.3,0],[0.4,0],[0.5,0],[0.6,0],[0.7,0],[0.8,0],[0.9,0],[0,0.1],[0,0.3],[0,0.5],[0,0.7],[0,0.9],[0.1,1],[0.2,1],[0.3,1],[0.4,1],[0.5,1],[0.6,1],[0.7,1],[0.8,1],[0.9,1],[1,0.1],[1,0.3],[1,0.5],[1,0.7],[1,0.9]];" parent="1" vertex="1">
          <mxGeometry x="100" y="250" width="219" height="320" as="geometry" />
        </mxCell>
        <mxCell id="7OYhp2xL0KcFC6VSOEil-9" value="eth:Block" style="rounded=0;whiteSpace=wrap;html=1;snapToPoint=1;points=[[0.1,0],[0.2,0],[0.3,0],[0.4,0],[0.5,0],[0.6,0],[0.7,0],[0.8,0],[0.9,0],[0,0.1],[0,0.3],[0,0.5],[0,0.7],[0,0.9],[0.1,1],[0.2,1],[0.3,1],[0.4,1],[0.5,1],[0.6,1],[0.7,1],[0.8,1],[0.9,1],[1,0.1],[1,0.3],[1,0.5],[1,0.7],[1,0.9]];fillColor=#ffe6cc;strokeColor=#d79b00;" parent="1" vertex="1">
          <mxGeometry x="100" y="220" width="219" height="30" as="geometry" />
        </mxCell>
        <mxCell id="7OYhp2xL0KcFC6VSOEil-10" value="eth:blockHash: string&lt;br&gt;eth:blockNumber: integer&lt;br&gt;eth:chainId: integer&lt;br&gt;eth:creates: string&lt;br style=&quot;border-color: var(--border-color);&quot;&gt;eth:from: string&lt;br&gt;eth:gas: integer&lt;br&gt;eth:gasPrice: integer&lt;br&gt;eth:hash: string&lt;br&gt;eth:input: string&lt;br&gt;eth:maxFeePerGas: integer&lt;br style=&quot;border-color: var(--border-color);&quot;&gt;eth:maxPriorityFeePerGas: integer&lt;br&gt;eth:nonce: integer&lt;br&gt;eth:publicKey: string&lt;br&gt;eth:r: string&lt;br&gt;eth:s: string&lt;br&gt;eth:to: string&lt;br style=&quot;border-color: var(--border-color);&quot;&gt;eth:transactionIndex: integer&lt;br&gt;eth:type: string&lt;br&gt;eth:v: integer&lt;br&gt;eth:value: integer" style="rounded=0;whiteSpace=wrap;html=1;snapToPoint=1;points=[[0.1,0],[0.2,0],[0.3,0],[0.4,0],[0.5,0],[0.6,0],[0.7,0],[0.8,0],[0.9,0],[0,0.1],[0,0.3],[0,0.5],[0,0.7],[0,0.9],[0.1,1],[0.2,1],[0.3,1],[0.4,1],[0.5,1],[0.6,1],[0.7,1],[0.8,1],[0.9,1],[1,0.1],[1,0.3],[1,0.5],[1,0.7],[1,0.9]];" parent="1" vertex="1">
          <mxGeometry x="456" y="266" width="264" height="292" as="geometry" />
        </mxCell>
        <mxCell id="7OYhp2xL0KcFC6VSOEil-11" value="eth:Transaction" style="rounded=0;whiteSpace=wrap;html=1;snapToPoint=1;points=[[0.1,0],[0.2,0],[0.3,0],[0.4,0],[0.5,0],[0.6,0],[0.7,0],[0.8,0],[0.9,0],[0,0.1],[0,0.3],[0,0.5],[0,0.7],[0,0.9],[0.1,1],[0.2,1],[0.3,1],[0.4,1],[0.5,1],[0.6,1],[0.7,1],[0.8,1],[0.9,1],[1,0.1],[1,0.3],[1,0.5],[1,0.7],[1,0.9]];fillColor=#ffe6cc;strokeColor=#d79b00;" parent="1" vertex="1">
          <mxGeometry x="456" y="236" width="264" height="30" as="geometry" />
        </mxCell>
        <mxCell id="7OYhp2xL0KcFC6VSOEil-12" value="" style="endArrow=classic;html=1;exitX=1;exitY=0.5;exitDx=0;exitDy=0;entryX=0;entryY=0.5;entryDx=0;entryDy=0;endSize=8;arcSize=0;rounded=0;" parent="1" source="7OYhp2xL0KcFC6VSOEil-8" target="7OYhp2xL0KcFC6VSOEil-10" edge="1">
          <mxGeometry width="50" height="50" relative="1" as="geometry">
            <mxPoint x="410" y="445" as="sourcePoint" />
            <mxPoint x="607" y="445" as="targetPoint" />
          </mxGeometry>
        </mxCell>
        <mxCell id="7OYhp2xL0KcFC6VSOEil-13" value="&lt;div&gt;eth:hasTransaction&lt;/div&gt;" style="text;html=1;align=center;verticalAlign=middle;resizable=0;points=[];labelBackgroundColor=#ffffff;" parent="7OYhp2xL0KcFC6VSOEil-12" vertex="1" connectable="0">
          <mxGeometry x="-0.1269" relative="1" as="geometry">
            <mxPoint as="offset" />
          </mxGeometry>
        </mxCell>
        <mxCell id="7OYhp2xL0KcFC6VSOEil-14" value="abi:ABI" style="rounded=0;whiteSpace=wrap;html=1;snapToPoint=1;points=[[0.1,0],[0.2,0],[0.3,0],[0.4,0],[0.5,0],[0.6,0],[0.7,0],[0.8,0],[0.9,0],[0,0.1],[0,0.3],[0,0.5],[0,0.7],[0,0.9],[0.1,1],[0.2,1],[0.3,1],[0.4,1],[0.5,1],[0.6,1],[0.7,1],[0.8,1],[0.9,1],[1,0.1],[1,0.3],[1,0.5],[1,0.7],[1,0.9]];fillColor=#ffe6cc;strokeColor=#d79b00;" parent="1" vertex="1">
          <mxGeometry x="528" y="150.00000000000023" width="120" height="30" as="geometry" />
        </mxCell>
        <mxCell id="7OYhp2xL0KcFC6VSOEil-15" value="" style="endArrow=classic;html=1;entryX=0.5;entryY=1;entryDx=0;entryDy=0;endSize=8;arcSize=0;rounded=0;exitX=0.5;exitY=0;exitDx=0;exitDy=0;" parent="1" source="7OYhp2xL0KcFC6VSOEil-11" target="7OYhp2xL0KcFC6VSOEil-14" edge="1">
          <mxGeometry width="50" height="50" relative="1" as="geometry">
            <mxPoint x="710" y="423" as="sourcePoint" />
            <mxPoint x="911" y="423" as="targetPoint" />
          </mxGeometry>
        </mxCell>
        <mxCell id="7OYhp2xL0KcFC6VSOEil-16" value="&lt;div&gt;eth:hasABI&lt;/div&gt;" style="text;html=1;align=center;verticalAlign=middle;resizable=0;points=[];labelBackgroundColor=#ffffff;" parent="7OYhp2xL0KcFC6VSOEil-15" vertex="1" connectable="0">
          <mxGeometry x="-0.1269" relative="1" as="geometry">
            <mxPoint as="offset" />
          </mxGeometry>
        </mxCell>
        <mxCell id="7OYhp2xL0KcFC6VSOEil-18" value="ethon:Block" style="rounded=0;whiteSpace=wrap;html=1;snapToPoint=1;points=[[0.1,0],[0.2,0],[0.3,0],[0.4,0],[0.5,0],[0.6,0],[0.7,0],[0.8,0],[0.9,0],[0,0.1],[0,0.3],[0,0.5],[0,0.7],[0,0.9],[0.1,1],[0.2,1],[0.3,1],[0.4,1],[0.5,1],[0.6,1],[0.7,1],[0.8,1],[0.9,1],[1,0.1],[1,0.3],[1,0.5],[1,0.7],[1,0.9]];fillColor=#ffe6cc;strokeColor=#d79b00;" parent="1" vertex="1">
          <mxGeometry x="149.5" y="140.00000000000023" width="120" height="30" as="geometry" />
        </mxCell>
        <mxCell id="7OYhp2xL0KcFC6VSOEil-19" value="" style="endArrow=classic;html=1;exitX=0.5;exitY=0;exitDx=0;exitDy=0;endSize=8;arcSize=0;rounded=0;" parent="1" source="7OYhp2xL0KcFC6VSOEil-9" target="7OYhp2xL0KcFC6VSOEil-18" edge="1">
          <mxGeometry width="50" height="50" relative="1" as="geometry">
            <mxPoint x="329" y="423" as="sourcePoint" />
            <mxPoint x="530" y="423" as="targetPoint" />
          </mxGeometry>
        </mxCell>
        <mxCell id="7OYhp2xL0KcFC6VSOEil-20" value="&lt;div&gt;eth:hasBehaviour&lt;/div&gt;" style="text;html=1;align=center;verticalAlign=middle;resizable=0;points=[];labelBackgroundColor=#ffffff;" parent="7OYhp2xL0KcFC6VSOEil-19" vertex="1" connectable="0">
          <mxGeometry x="-0.1269" relative="1" as="geometry">
            <mxPoint as="offset" />
          </mxGeometry>
        </mxCell>
        <mxCell id="7OYhp2xL0KcFC6VSOEil-24" value="eth:address: string&lt;br&gt;eth:index: string&lt;br&gt;eth:validatorIndex: string&lt;br&gt;eth:amount: integer" style="rounded=0;whiteSpace=wrap;html=1;snapToPoint=1;points=[[0.1,0],[0.2,0],[0.3,0],[0.4,0],[0.5,0],[0.6,0],[0.7,0],[0.8,0],[0.9,0],[0,0.1],[0,0.3],[0,0.5],[0,0.7],[0,0.9],[0.1,1],[0.2,1],[0.3,1],[0.4,1],[0.5,1],[0.6,1],[0.7,1],[0.8,1],[0.9,1],[1,0.1],[1,0.3],[1,0.5],[1,0.7],[1,0.9]];" parent="1" vertex="1">
          <mxGeometry x="130" y="649" width="200" height="71" as="geometry" />
        </mxCell>
        <mxCell id="7OYhp2xL0KcFC6VSOEil-25" value="eth:Withdrawal" style="rounded=0;whiteSpace=wrap;html=1;snapToPoint=1;points=[[0.1,0],[0.2,0],[0.3,0],[0.4,0],[0.5,0],[0.6,0],[0.7,0],[0.8,0],[0.9,0],[0,0.1],[0,0.3],[0,0.5],[0,0.7],[0,0.9],[0.1,1],[0.2,1],[0.3,1],[0.4,1],[0.5,1],[0.6,1],[0.7,1],[0.8,1],[0.9,1],[1,0.1],[1,0.3],[1,0.5],[1,0.7],[1,0.9]];fillColor=#ffe6cc;strokeColor=#d79b00;" parent="1" vertex="1">
          <mxGeometry x="130" y="619" width="200" height="30" as="geometry" />
        </mxCell>
        <mxCell id="7OYhp2xL0KcFC6VSOEil-26" value="" style="endArrow=classic;html=1;exitX=0.6;exitY=1;exitDx=0;exitDy=0;endSize=8;arcSize=0;rounded=0;entryX=0.5;entryY=0;entryDx=0;entryDy=0;" parent="1" source="7OYhp2xL0KcFC6VSOEil-8" target="7OYhp2xL0KcFC6VSOEil-25" edge="1">
          <mxGeometry width="50" height="50" relative="1" as="geometry">
            <mxPoint x="329" y="423" as="sourcePoint" />
            <mxPoint x="500" y="423" as="targetPoint" />
          </mxGeometry>
        </mxCell>
        <mxCell id="7OYhp2xL0KcFC6VSOEil-27" value="&lt;div&gt;eth:hasWithdrawal&lt;/div&gt;" style="text;html=1;align=center;verticalAlign=middle;resizable=0;points=[];labelBackgroundColor=#ffffff;" parent="7OYhp2xL0KcFC6VSOEil-26" vertex="1" connectable="0">
          <mxGeometry x="-0.1269" relative="1" as="geometry">
            <mxPoint as="offset" />
          </mxGeometry>
        </mxCell>
        <mxCell id="7OYhp2xL0KcFC6VSOEil-28" value="eth:address:string" style="rounded=0;whiteSpace=wrap;html=1;snapToPoint=1;points=[[0.1,0],[0.2,0],[0.3,0],[0.4,0],[0.5,0],[0.6,0],[0.7,0],[0.8,0],[0.9,0],[0,0.1],[0,0.3],[0,0.5],[0,0.7],[0,0.9],[0.1,1],[0.2,1],[0.3,1],[0.4,1],[0.5,1],[0.6,1],[0.7,1],[0.8,1],[0.9,1],[1,0.1],[1,0.3],[1,0.5],[1,0.7],[1,0.9]];" parent="1" vertex="1">
          <mxGeometry x="483" y="668" width="210" height="32" as="geometry" />
        </mxCell>
        <mxCell id="7OYhp2xL0KcFC6VSOEil-29" value="eth:AccessList" style="rounded=0;whiteSpace=wrap;html=1;snapToPoint=1;points=[[0.1,0],[0.2,0],[0.3,0],[0.4,0],[0.5,0],[0.6,0],[0.7,0],[0.8,0],[0.9,0],[0,0.1],[0,0.3],[0,0.5],[0,0.7],[0,0.9],[0.1,1],[0.2,1],[0.3,1],[0.4,1],[0.5,1],[0.6,1],[0.7,1],[0.8,1],[0.9,1],[1,0.1],[1,0.3],[1,0.5],[1,0.7],[1,0.9]];fillColor=#ffe6cc;strokeColor=#d79b00;" parent="1" vertex="1">
          <mxGeometry x="483" y="638" width="210" height="30" as="geometry" />
        </mxCell>
        <mxCell id="7OYhp2xL0KcFC6VSOEil-30" value="eth:key:string" style="rounded=0;whiteSpace=wrap;html=1;snapToPoint=1;points=[[0.1,0],[0.2,0],[0.3,0],[0.4,0],[0.5,0],[0.6,0],[0.7,0],[0.8,0],[0.9,0],[0,0.1],[0,0.3],[0,0.5],[0,0.7],[0,0.9],[0.1,1],[0.2,1],[0.3,1],[0.4,1],[0.5,1],[0.6,1],[0.7,1],[0.8,1],[0.9,1],[1,0.1],[1,0.3],[1,0.5],[1,0.7],[1,0.9]];" parent="1" vertex="1">
          <mxGeometry x="483" y="789" width="210" height="31" as="geometry" />
        </mxCell>
        <mxCell id="7OYhp2xL0KcFC6VSOEil-31" value="eth:Key" style="rounded=0;whiteSpace=wrap;html=1;snapToPoint=1;points=[[0.1,0],[0.2,0],[0.3,0],[0.4,0],[0.5,0],[0.6,0],[0.7,0],[0.8,0],[0.9,0],[0,0.1],[0,0.3],[0,0.5],[0,0.7],[0,0.9],[0.1,1],[0.2,1],[0.3,1],[0.4,1],[0.5,1],[0.6,1],[0.7,1],[0.8,1],[0.9,1],[1,0.1],[1,0.3],[1,0.5],[1,0.7],[1,0.9]];fillColor=#ffe6cc;strokeColor=#d79b00;" parent="1" vertex="1">
          <mxGeometry x="483" y="759" width="210" height="30" as="geometry" />
        </mxCell>
        <mxCell id="7OYhp2xL0KcFC6VSOEil-32" value="" style="endArrow=classic;html=1;entryX=0.5;entryY=0;entryDx=0;entryDy=0;endSize=8;arcSize=0;rounded=0;exitX=0.5;exitY=1;exitDx=0;exitDy=0;" parent="1" source="7OYhp2xL0KcFC6VSOEil-10" target="7OYhp2xL0KcFC6VSOEil-29" edge="1">
          <mxGeometry width="50" height="50" relative="1" as="geometry">
            <mxPoint x="605" y="246" as="sourcePoint" />
            <mxPoint x="605" y="190" as="targetPoint" />
          </mxGeometry>
        </mxCell>
        <mxCell id="7OYhp2xL0KcFC6VSOEil-33" value="&lt;div&gt;eth:hasAccessList&lt;/div&gt;" style="text;html=1;align=center;verticalAlign=middle;resizable=0;points=[];labelBackgroundColor=#ffffff;" parent="7OYhp2xL0KcFC6VSOEil-32" vertex="1" connectable="0">
          <mxGeometry x="-0.1269" relative="1" as="geometry">
            <mxPoint as="offset" />
          </mxGeometry>
        </mxCell>
        <mxCell id="7OYhp2xL0KcFC6VSOEil-34" value="" style="endArrow=classic;html=1;entryX=0.5;entryY=0;entryDx=0;entryDy=0;endSize=8;arcSize=0;rounded=0;exitX=0.5;exitY=1;exitDx=0;exitDy=0;" parent="1" source="7OYhp2xL0KcFC6VSOEil-28" target="7OYhp2xL0KcFC6VSOEil-31" edge="1">
          <mxGeometry width="50" height="50" relative="1" as="geometry">
            <mxPoint x="732" y="391" as="sourcePoint" />
            <mxPoint x="882" y="389" as="targetPoint" />
          </mxGeometry>
        </mxCell>
        <mxCell id="7OYhp2xL0KcFC6VSOEil-35" value="&lt;div&gt;eth:hasKey&lt;/div&gt;" style="text;html=1;align=center;verticalAlign=middle;resizable=0;points=[];labelBackgroundColor=#ffffff;" parent="7OYhp2xL0KcFC6VSOEil-34" vertex="1" connectable="0">
          <mxGeometry x="-0.1269" relative="1" as="geometry">
            <mxPoint as="offset" />
          </mxGeometry>
        </mxCell>
        <mxCell id="FdG07NQuOFD6o3g3dEVX-1" value="" style="endArrow=classic;html=1;exitX=0;exitY=0.7;exitDx=0;exitDy=0;endSize=8;arcSize=0;rounded=0;" parent="1" source="7OYhp2xL0KcFC6VSOEil-10" edge="1">
          <mxGeometry width="50" height="50" relative="1" as="geometry">
            <mxPoint x="319" y="510" as="sourcePoint" />
            <mxPoint x="320" y="470" as="targetPoint" />
          </mxGeometry>
        </mxCell>
        <mxCell id="FdG07NQuOFD6o3g3dEVX-2" value="&lt;div&gt;eth:hasBlock&lt;/div&gt;" style="text;html=1;align=center;verticalAlign=middle;resizable=0;points=[];labelBackgroundColor=#ffffff;" parent="FdG07NQuOFD6o3g3dEVX-1" vertex="1" connectable="0">
          <mxGeometry x="-0.1269" relative="1" as="geometry">
            <mxPoint x="-4" as="offset" />
          </mxGeometry>
        </mxCell>
      </root>
    </mxGraphModel>
  </diagram>
</mxfile>
